<?xml version="1.0" standalone="no"?>
<!DOCTYPE svg PUBLIC "-//W3C//DTD SVG 20010904//EN"
 "http://www.w3.org/TR/2001/REC-SVG-20010904/DTD/svg10.dtd">
<svg version="1.0" xmlns="http://www.w3.org/2000/svg"
 width="512.000000pt" height="512.000000pt" viewBox="0 0 512.000000 512.000000"
 preserveAspectRatio="xMidYMid meet">

<g transform="translate(0.000000,512.000000) scale(0.100000,-0.100000)"
fill="#000000" stroke="none">
<path d="M2454 4942 c-66 -23 -124 -70 -162 -130 -104 -162 -40 -379 135 -459
l53 -24 0 -168 0 -168 -36 -11 c-19 -6 -142 -69 -273 -141 -131 -72 -241 -131
-244 -131 -4 0 -7 73 -7 161 l0 162 -101 102 -100 102 22 64 c52 155 -19 323
-170 396 -73 36 -190 39 -263 6 -66 -30 -133 -95 -165 -162 -23 -47 -28 -69
-28 -136 0 -67 5 -89 28 -136 73 -151 241 -222 396 -169 l64 21 79 -78 78 -78
0 -176 0 -177 -120 -67 c-153 -85 -177 -118 -129 -179 41 -51 54 -46 526 215
475 262 503 274 586 247 80 -26 938 -507 984 -551 75 -71 73 -56 73 -717 0
-657 1 -650 -70 -719 -44 -43 -927 -535 -992 -552 -85 -23 -105 -15 -603 262
-259 144 -483 273 -499 287 -16 15 -39 50 -52 77 l-24 50 0 620 1 620 -26 23
c-36 30 -71 28 -106 -7 -27 -27 -29 -35 -29 -105 l0 -76 -164 0 -165 0 -24 53
c-30 66 -81 118 -150 154 -44 23 -65 27 -137 28 -101 0 -159 -23 -228 -93 -65
-65 -87 -120 -87 -222 0 -102 22 -157 87 -222 67 -67 127 -92 223 -93 66 0 90
5 136 26 70 33 125 87 156 156 l24 53 165 0 164 0 0 -320 0 -320 -164 0 -165
0 -24 53 c-30 66 -81 118 -150 154 -44 23 -65 27 -137 28 -101 0 -159 -23
-228 -93 -65 -65 -87 -120 -87 -222 0 -102 22 -157 87 -222 67 -67 127 -92
223 -93 66 0 90 5 136 26 70 33 125 87 156 156 l24 53 165 0 164 0 0 -58 c0
-72 23 -161 55 -217 42 -71 112 -126 273 -214 l152 -84 0 -176 0 -176 -79 -79
-79 -78 -53 18 c-86 29 -173 25 -252 -14 -196 -97 -244 -345 -96 -506 68 -75
129 -101 239 -101 69 0 94 5 132 24 151 74 222 243 168 400 l-21 64 100 102
101 102 0 162 c0 88 3 161 8 161 4 0 113 -59 242 -130 129 -72 252 -136 273
-142 l37 -11 0 -168 0 -168 -53 -24 c-66 -30 -118 -81 -154 -150 -23 -44 -27
-65 -27 -137 -1 -101 23 -159 92 -228 65 -65 120 -87 222 -87 102 0 157 22
222 87 69 69 93 127 92 228 0 72 -4 93 -27 137 -36 69 -88 120 -154 150 l-53
24 0 168 0 168 38 11 c20 6 140 68 266 138 126 69 235 128 242 131 12 4 14
-24 14 -157 l0 -163 101 -102 100 -102 -22 -64 c-52 -155 19 -323 170 -396 73
-36 190 -39 263 -6 66 30 133 95 165 162 23 47 28 69 28 136 0 67 -5 89 -28
136 -73 151 -241 222 -396 169 l-64 -21 -79 78 -78 78 0 176 0 176 153 84 c83
46 171 101 194 122 86 79 133 188 133 309 l0 58 164 0 165 0 24 -53 c30 -66
81 -118 150 -154 44 -23 65 -27 137 -27 100 -1 159 23 226 89 66 66 89 125 89
225 0 102 -22 157 -87 222 -69 69 -127 93 -228 92 -72 0 -93 -4 -137 -27 -69
-36 -120 -88 -150 -154 l-24 -53 -165 0 -164 0 0 320 0 320 164 0 165 0 24
-53 c30 -66 81 -118 150 -154 44 -23 65 -27 137 -27 101 -1 159 23 228 92 65
65 87 120 87 222 0 102 -22 157 -87 222 -69 69 -127 93 -228 92 -72 0 -93 -4
-137 -27 -69 -36 -120 -88 -150 -154 l-24 -53 -165 0 -164 0 0 58 c0 72 -23
161 -55 217 -42 72 -113 127 -272 215 l-153 83 0 176 0 176 79 79 79 78 53
-18 c79 -27 171 -24 239 8 79 36 125 80 162 155 59 121 39 256 -53 357 -58 63
-127 97 -215 104 -228 18 -399 -207 -324 -427 l21 -64 -100 -102 -101 -102 0
-163 c0 -142 -2 -161 -15 -156 -9 3 -114 60 -233 126 -119 66 -238 128 -264
138 l-48 17 0 167 0 167 53 24 c69 31 123 86 156 156 36 78 37 193 1 266 -32
64 -98 131 -158 157 -66 30 -172 34 -238 10z m169 -156 c103 -43 128 -177 48
-257 -112 -113 -296 -12 -267 146 18 94 128 150 219 111z m-1120 -240 c103
-43 128 -177 48 -257 -65 -65 -157 -65 -222 0 -124 123 13 325 174 257z m2240
0 c103 -43 128 -177 48 -257 -112 -113 -296 -12 -267 146 18 94 128 150 219
111z m-3040 -1440 c103 -43 128 -177 48 -257 -112 -113 -296 -12 -267 146 18
94 128 150 219 111z m3840 0 c104 -43 128 -175 47 -256 -66 -66 -156 -67 -221
-1 -124 123 13 325 174 257z m-3840 -800 c103 -43 128 -177 48 -257 -65 -65
-157 -65 -222 0 -124 123 13 325 174 257z m3840 0 c103 -43 128 -177 48 -257
-65 -65 -157 -65 -222 0 -124 123 13 325 174 257z m-3040 -1440 c103 -43 128
-177 48 -257 -65 -65 -157 -65 -222 0 -124 123 13 325 174 257z m2240 0 c103
-43 128 -177 48 -257 -65 -65 -157 -65 -222 0 -124 123 13 325 174 257z
m-1120 -240 c103 -43 128 -177 48 -257 -65 -65 -157 -65 -222 0 -124 123 13
325 174 257z"/>
<path d="M320 3680 l0 -160 160 0 160 0 0 160 0 160 -160 0 -160 0 0 -160z"/>
<path d="M1625 2935 l-25 -24 0 -351 0 -351 25 -24 c29 -30 74 -32 106 -6 24
19 24 23 29 237 l5 217 163 -217 c89 -119 172 -226 182 -236 28 -28 75 -26
105 5 l25 24 0 351 0 351 -25 24 c-29 30 -74 32 -106 6 -24 -19 -24 -23 -29
-237 l-5 -217 -163 217 c-89 119 -172 226 -182 236 -28 28 -75 26 -105 -5z"/>
<path d="M2425 2935 l-25 -24 0 -351 0 -351 25 -24 c15 -16 36 -25 55 -25 19
0 40 9 55 25 24 23 25 29 25 160 l0 135 135 0 c131 0 137 1 160 25 33 32 33
78 0 110 -23 24 -29 25 -160 25 l-135 0 0 80 0 80 135 0 c131 0 137 1 160 25
16 15 25 36 25 55 0 19 -9 40 -25 55 -24 25 -26 25 -215 25 -189 0 -191 0
-215 -25z"/>
<path d="M3065 2935 c-16 -15 -25 -36 -25 -55 0 -51 38 -80 105 -80 l55 0 0
-295 0 -296 25 -24 c15 -16 36 -25 55 -25 19 0 40 9 55 25 l25 24 0 296 0 295
55 0 c67 0 105 29 105 80 0 19 -9 40 -25 55 -24 25 -26 25 -215 25 -189 0
-191 0 -215 -25z"/>
<path d="M4400 960 l0 -160 160 0 160 0 0 160 0 160 -160 0 -160 0 0 -160z"/>
</g>
</svg>
